<svg width="968" height="557" viewBox="0 0 968 557" fill="none" xmlns="http://www.w3.org/2000/svg">
<path d="M354.812 471.494L362.42 454.694H364.796L372.428 471.494H369.908L363.116 456.038H364.076L357.284 471.494H354.812ZM358.052 467.294L358.7 465.374H368.156L368.852 467.294H358.052ZM378.891 471.494L371.499 454.694H374.091L380.883 470.198H379.395L386.235 454.694H388.635L381.267 471.494H378.891ZM392.962 461.942H401.602V463.982H392.962V461.942ZM393.178 469.406H402.97V471.494H390.778V454.694H402.634V456.782H393.178V469.406ZM414.417 471.686C413.121 471.686 411.929 471.478 410.841 471.062C409.753 470.63 408.809 470.03 408.009 469.262C407.209 468.478 406.585 467.566 406.137 466.526C405.689 465.486 405.465 464.342 405.465 463.094C405.465 461.846 405.689 460.702 406.137 459.662C406.585 458.622 407.209 457.718 408.009 456.95C408.825 456.166 409.777 455.566 410.865 455.15C411.953 454.718 413.153 454.502 414.465 454.502C415.793 454.502 417.009 454.718 418.113 455.15C419.217 455.582 420.153 456.23 420.921 457.094L419.433 458.582C418.745 457.91 417.993 457.422 417.177 457.118C416.377 456.798 415.505 456.638 414.561 456.638C413.601 456.638 412.705 456.798 411.873 457.118C411.057 457.438 410.345 457.886 409.737 458.462C409.145 459.038 408.681 459.726 408.345 460.526C408.025 461.31 407.865 462.166 407.865 463.094C407.865 464.006 408.025 464.862 408.345 465.662C408.681 466.446 409.145 467.134 409.737 467.726C410.345 468.302 411.057 468.75 411.873 469.07C412.689 469.39 413.577 469.55 414.537 469.55C415.433 469.55 416.289 469.414 417.105 469.142C417.937 468.854 418.705 468.382 419.409 467.726L420.777 469.55C419.945 470.254 418.969 470.79 417.849 471.158C416.745 471.51 415.601 471.686 414.417 471.686ZM418.473 469.238V462.998H420.777V469.55L418.473 469.238ZM422.828 471.494L430.436 454.694H432.812L440.444 471.494H437.924L431.132 456.038H432.092L425.3 471.494H422.828ZM426.068 467.294L426.716 465.374H436.172L436.868 467.294H426.068ZM445.442 471.494V456.782H439.682V454.694H453.578V456.782H447.818V471.494H445.442ZM470.149 471.686C468.869 471.686 467.685 471.478 466.597 471.062C465.525 470.63 464.589 470.03 463.789 469.262C463.005 468.478 462.389 467.566 461.941 466.526C461.493 465.486 461.269 464.342 461.269 463.094C461.269 461.846 461.493 460.702 461.941 459.662C462.389 458.622 463.013 457.718 463.813 456.95C464.613 456.166 465.549 455.566 466.621 455.15C467.709 454.718 468.893 454.502 470.173 454.502C471.469 454.502 472.661 454.726 473.749 455.174C474.853 455.606 475.789 456.254 476.557 457.118L474.997 458.63C474.357 457.958 473.637 457.462 472.837 457.142C472.037 456.806 471.181 456.638 470.269 456.638C469.325 456.638 468.445 456.798 467.629 457.118C466.829 457.438 466.133 457.886 465.541 458.462C464.949 459.038 464.485 459.726 464.149 460.526C463.829 461.31 463.669 462.166 463.669 463.094C463.669 464.022 463.829 464.886 464.149 465.686C464.485 466.47 464.949 467.15 465.541 467.726C466.133 468.302 466.829 468.75 467.629 469.07C468.445 469.39 469.325 469.55 470.269 469.55C471.181 469.55 472.037 469.39 472.837 469.07C473.637 468.734 474.357 468.222 474.997 467.534L476.557 469.046C475.789 469.91 474.853 470.566 473.749 471.014C472.661 471.462 471.461 471.686 470.149 471.686ZM487.213 471.686C485.933 471.686 484.741 471.47 483.637 471.038C482.549 470.606 481.605 470.006 480.805 469.238C480.005 468.454 479.381 467.542 478.933 466.502C478.485 465.462 478.261 464.326 478.261 463.094C478.261 461.862 478.485 460.726 478.933 459.686C479.381 458.646 480.005 457.742 480.805 456.974C481.605 456.19 482.549 455.582 483.637 455.15C484.725 454.718 485.917 454.502 487.213 454.502C488.493 454.502 489.669 454.718 490.741 455.15C491.829 455.566 492.773 456.166 493.573 456.95C494.389 457.718 495.013 458.622 495.445 459.662C495.893 460.702 496.117 461.846 496.117 463.094C496.117 464.342 495.893 465.486 495.445 466.526C495.013 467.566 494.389 468.478 493.573 469.262C492.773 470.03 491.829 470.63 490.741 471.062C489.669 471.478 488.493 471.686 487.213 471.686ZM487.213 469.55C488.141 469.55 488.997 469.39 489.781 469.07C490.581 468.75 491.269 468.302 491.845 467.726C492.437 467.134 492.893 466.446 493.213 465.662C493.549 464.878 493.717 464.022 493.717 463.094C493.717 462.166 493.549 461.31 493.213 460.526C492.893 459.742 492.437 459.062 491.845 458.486C491.269 457.894 490.581 457.438 489.781 457.118C488.997 456.798 488.141 456.638 487.213 456.638C486.269 456.638 485.397 456.798 484.597 457.118C483.813 457.438 483.125 457.894 482.533 458.486C481.941 459.062 481.477 459.742 481.141 460.526C480.821 461.31 480.661 462.166 480.661 463.094C480.661 464.022 480.821 464.878 481.141 465.662C481.477 466.446 481.941 467.134 482.533 467.726C483.125 468.302 483.813 468.75 484.597 469.07C485.397 469.39 486.269 469.55 487.213 469.55ZM499.786 471.494V454.694H501.754L512.866 468.494H511.834V454.694H514.234V471.494H512.266L501.154 457.694H502.186V471.494H499.786ZM524.158 471.686C522.878 471.686 521.654 471.494 520.486 471.11C519.318 470.71 518.398 470.198 517.726 469.574L518.614 467.702C519.254 468.262 520.07 468.726 521.062 469.094C522.054 469.462 523.086 469.646 524.158 469.646C525.134 469.646 525.926 469.534 526.534 469.31C527.142 469.086 527.59 468.782 527.878 468.398C528.166 467.998 528.31 467.55 528.31 467.054C528.31 466.478 528.118 466.014 527.734 465.662C527.366 465.31 526.878 465.03 526.27 464.822C525.678 464.598 525.022 464.406 524.302 464.246C523.582 464.086 522.854 463.902 522.118 463.694C521.398 463.47 520.734 463.19 520.126 462.854C519.534 462.518 519.054 462.07 518.686 461.51C518.318 460.934 518.134 460.198 518.134 459.302C518.134 458.438 518.358 457.646 518.806 456.926C519.27 456.19 519.974 455.606 520.918 455.174C521.878 454.726 523.094 454.502 524.566 454.502C525.542 454.502 526.51 454.63 527.47 454.886C528.43 455.142 529.262 455.51 529.966 455.99L529.174 457.91C528.454 457.43 527.694 457.086 526.894 456.878C526.094 456.654 525.318 456.542 524.566 456.542C523.622 456.542 522.846 456.662 522.238 456.902C521.63 457.142 521.182 457.462 520.894 457.862C520.622 458.262 520.486 458.71 520.486 459.206C520.486 459.798 520.67 460.27 521.038 460.622C521.422 460.974 521.91 461.254 522.502 461.462C523.11 461.67 523.774 461.862 524.494 462.038C525.214 462.198 525.934 462.382 526.654 462.59C527.39 462.798 528.054 463.07 528.646 463.406C529.254 463.742 529.742 464.19 530.11 464.75C530.478 465.31 530.662 466.03 530.662 466.91C530.662 467.758 530.43 468.55 529.966 469.286C529.502 470.006 528.782 470.59 527.806 471.038C526.846 471.47 525.63 471.686 524.158 471.686ZM537.27 471.494V456.782H531.51V454.694H545.406V456.782H539.646V471.494H537.27ZM548.02 471.494V454.694H554.572C556.044 454.694 557.3 454.926 558.34 455.39C559.38 455.854 560.18 456.526 560.74 457.406C561.3 458.286 561.58 459.334 561.58 460.55C561.58 461.766 561.3 462.814 560.74 463.694C560.18 464.558 559.38 465.222 558.34 465.686C557.3 466.15 556.044 466.382 554.572 466.382H549.34L550.42 465.278V471.494H548.02ZM559.252 471.494L554.98 465.398H557.548L561.868 471.494H559.252ZM550.42 465.518L549.34 464.342H554.5C556.036 464.342 557.196 464.014 557.98 463.358C558.78 462.686 559.18 461.75 559.18 460.55C559.18 459.35 558.78 458.422 557.98 457.766C557.196 457.11 556.036 456.782 554.5 456.782H549.34L550.42 455.582V465.518ZM572.418 471.686C570.21 471.686 568.474 471.054 567.21 469.79C565.946 468.526 565.314 466.678 565.314 464.246V454.694H567.714V464.15C567.714 466.022 568.122 467.39 568.938 468.254C569.77 469.118 570.938 469.55 572.442 469.55C573.962 469.55 575.13 469.118 575.946 468.254C576.778 467.39 577.194 466.022 577.194 464.15V454.694H579.522V464.246C579.522 466.678 578.89 468.526 577.626 469.79C576.378 471.054 574.642 471.686 572.418 471.686ZM591.954 471.686C590.674 471.686 589.49 471.478 588.402 471.062C587.33 470.63 586.394 470.03 585.594 469.262C584.81 468.478 584.194 467.566 583.746 466.526C583.298 465.486 583.074 464.342 583.074 463.094C583.074 461.846 583.298 460.702 583.746 459.662C584.194 458.622 584.818 457.718 585.618 456.95C586.418 456.166 587.354 455.566 588.426 455.15C589.514 454.718 590.698 454.502 591.978 454.502C593.274 454.502 594.466 454.726 595.554 455.174C596.658 455.606 597.594 456.254 598.362 457.118L596.802 458.63C596.162 457.958 595.442 457.462 594.642 457.142C593.842 456.806 592.986 456.638 592.074 456.638C591.13 456.638 590.25 456.798 589.434 457.118C588.634 457.438 587.938 457.886 587.346 458.462C586.754 459.038 586.29 459.726 585.954 460.526C585.634 461.31 585.474 462.166 585.474 463.094C585.474 464.022 585.634 464.886 585.954 465.686C586.29 466.47 586.754 467.15 587.346 467.726C587.938 468.302 588.634 468.75 589.434 469.07C590.25 469.39 591.13 469.55 592.074 469.55C592.986 469.55 593.842 469.39 594.642 469.07C595.442 468.734 596.162 468.222 596.802 467.534L598.362 469.046C597.594 469.91 596.658 470.566 595.554 471.014C594.466 471.462 593.266 471.686 591.954 471.686ZM604.934 471.494V456.782H599.174V454.694H613.07V456.782H607.31V471.494H604.934Z" fill="#2E2E2E"/>
<path fill-rule="evenodd" clip-rule="evenodd" d="M610.17 101.724L499.924 0V84.4677L610.17 157.483V101.724ZM610.17 195.683L499.924 122.668V196.655L610.17 247.244V195.683ZM644.468 262.983V218.399L740.015 281.68V306.828L644.468 262.983ZM610.17 280.343L499.924 231.394V287.736L610.17 322.996V280.343ZM644.468 333.966V295.572L740.015 337.996V364.525L644.468 333.966ZM610.17 352.955L499.924 320.616V367.457L610.17 388.76V352.955ZM644.468 395.388V363.016L740.015 391.043V413.851L644.468 395.388ZM644.468 180.199V133.371L740.015 221.533V243.48L644.468 180.199ZM227.984 221.533L320.745 137.565V180.667L227.984 242.102V221.533ZM227.984 280.303V307.564L320.745 264.997V218.867L227.984 280.303ZM227.984 413.851V390.792L320.745 363.582V396.266L227.984 413.851ZM320.745 334.583L227.984 364.251V338.708L320.745 297.521V334.583ZM355.044 389.764V353.521L465.626 321.083V368.801L355.044 389.764ZM355.044 323.613L465.626 288.246V233.193L355.044 282.292V323.613ZM465.626 122.914V198.514L355.044 249.258V196.152L465.626 122.914ZM465.626 84.7131V6.41721L355.044 106.517V157.951L465.626 84.7131Z" fill="#2E2E2E"/>
</svg>
